<svg id="visual" viewBox="0 0 960 50" width="960" height="50" xmlns="http://www.w3.org/2000/svg" xmlns:xlink="http://www.w3.org/1999/xlink" version="1.1"><path d="M0 28L120 22L240 26L360 41L480 27L600 20L720 30L840 8L960 30L960 0L840 0L720 0L600 0L480 0L360 0L240 0L120 0L0 0Z" fill="#d39fa0"></path><path d="M0 14L120 9L240 26L360 24L480 13L600 15L720 13L840 7L960 8L960 0L840 0L720 0L600 0L480 0L360 0L240 0L120 0L0 0Z" fill="#ab6666"></path><path d="M0 4L120 4L240 17L360 18L480 7L600 13L720 3L840 8L960 14L960 0L840 0L720 0L600 0L480 0L360 0L240 0L120 0L0 0Z" fill="#802e2f"></path></svg>